<mxfile host="app.diagrams.net" modified="2021-06-15T03:13:27.982Z" agent="5.0 (Windows NT 10.0; Win64; x64) AppleWebKit/537.36 (KHTML, like Gecko) Chrome/91.0.4472.101 Safari/537.36" etag="lCxLoe6s1AjslqaWN2h9" version="14.4.4" type="github">
  <diagram id="1bBmZTWdJpM3CFMfT5JP" name="Page-1">
    <mxGraphModel dx="1422" dy="762" grid="1" gridSize="10" guides="1" tooltips="1" connect="1" arrows="1" fold="1" page="1" pageScale="1" pageWidth="850" pageHeight="1100" math="0" shadow="0">
      <root>
        <mxCell id="0" />
        <mxCell id="1" parent="0" />
        <mxCell id="1z3jomABF16I6msOwtXd-7" value="" style="edgeStyle=orthogonalEdgeStyle;rounded=0;orthogonalLoop=1;jettySize=auto;html=1;" parent="1" source="1z3jomABF16I6msOwtXd-1" target="1z3jomABF16I6msOwtXd-6" edge="1">
          <mxGeometry relative="1" as="geometry" />
        </mxCell>
        <mxCell id="1z3jomABF16I6msOwtXd-1" value="App Start" style="rounded=0;whiteSpace=wrap;html=1;" parent="1" vertex="1">
          <mxGeometry x="160" y="190" width="120" height="60" as="geometry" />
        </mxCell>
        <mxCell id="1z3jomABF16I6msOwtXd-15" value="" style="edgeStyle=orthogonalEdgeStyle;rounded=0;orthogonalLoop=1;jettySize=auto;html=1;" parent="1" source="1z3jomABF16I6msOwtXd-2" target="1z3jomABF16I6msOwtXd-14" edge="1">
          <mxGeometry relative="1" as="geometry" />
        </mxCell>
        <mxCell id="1z3jomABF16I6msOwtXd-2" value="Setup" style="rounded=0;whiteSpace=wrap;html=1;" parent="1" vertex="1">
          <mxGeometry x="285" y="470" width="120" height="60" as="geometry" />
        </mxCell>
        <mxCell id="1z3jomABF16I6msOwtXd-12" style="edgeStyle=orthogonalEdgeStyle;rounded=0;orthogonalLoop=1;jettySize=auto;html=1;entryX=1;entryY=0.75;entryDx=0;entryDy=0;exitX=0.4;exitY=0.983;exitDx=0;exitDy=0;exitPerimeter=0;" parent="1" source="Y8VPCgD-qVgG732eyoct-1" target="1z3jomABF16I6msOwtXd-2" edge="1">
          <mxGeometry relative="1" as="geometry">
            <Array as="points">
              <mxPoint x="570" y="349" />
              <mxPoint x="570" y="515" />
            </Array>
            <mxPoint x="570" y="350" as="sourcePoint" />
          </mxGeometry>
        </mxCell>
        <mxCell id="1z3jomABF16I6msOwtXd-13" value="Succeed" style="edgeLabel;html=1;align=center;verticalAlign=middle;resizable=0;points=[];" parent="1z3jomABF16I6msOwtXd-12" vertex="1" connectable="0">
          <mxGeometry x="-0.3152" y="-1" relative="1" as="geometry">
            <mxPoint as="offset" />
          </mxGeometry>
        </mxCell>
        <mxCell id="1z3jomABF16I6msOwtXd-8" style="edgeStyle=orthogonalEdgeStyle;rounded=0;orthogonalLoop=1;jettySize=auto;html=1;" parent="1" source="1z3jomABF16I6msOwtXd-6" target="1z3jomABF16I6msOwtXd-2" edge="1">
          <mxGeometry relative="1" as="geometry" />
        </mxCell>
        <mxCell id="1z3jomABF16I6msOwtXd-9" style="edgeStyle=orthogonalEdgeStyle;rounded=0;orthogonalLoop=1;jettySize=auto;html=1;entryX=0;entryY=0.5;entryDx=0;entryDy=0;" parent="1" source="1z3jomABF16I6msOwtXd-6" target="Y8VPCgD-qVgG732eyoct-1" edge="1">
          <mxGeometry relative="1" as="geometry">
            <mxPoint x="520" y="320" as="targetPoint" />
          </mxGeometry>
        </mxCell>
        <mxCell id="1z3jomABF16I6msOwtXd-6" value="Authenticated" style="rhombus;whiteSpace=wrap;html=1;rounded=0;" parent="1" vertex="1">
          <mxGeometry x="280" y="280" width="130" height="80" as="geometry" />
        </mxCell>
        <mxCell id="1z3jomABF16I6msOwtXd-10" style="edgeStyle=orthogonalEdgeStyle;rounded=0;orthogonalLoop=1;jettySize=auto;html=1;entryX=0.5;entryY=0;entryDx=0;entryDy=0;exitX=1;exitY=0.25;exitDx=0;exitDy=0;" parent="1" source="Y8VPCgD-qVgG732eyoct-1" target="Y8VPCgD-qVgG732eyoct-1" edge="1">
          <mxGeometry relative="1" as="geometry">
            <Array as="points">
              <mxPoint x="640" y="310" />
              <mxPoint x="710" y="310" />
              <mxPoint x="710" y="210" />
              <mxPoint x="580" y="210" />
            </Array>
            <mxPoint x="650" y="310" as="sourcePoint" />
            <mxPoint x="580" y="290" as="targetPoint" />
          </mxGeometry>
        </mxCell>
        <mxCell id="1z3jomABF16I6msOwtXd-11" value="Failed" style="edgeLabel;html=1;align=center;verticalAlign=middle;resizable=0;points=[];" parent="1z3jomABF16I6msOwtXd-10" vertex="1" connectable="0">
          <mxGeometry x="-0.3" y="4" relative="1" as="geometry">
            <mxPoint as="offset" />
          </mxGeometry>
        </mxCell>
        <mxCell id="1z3jomABF16I6msOwtXd-14" value="Show Menu UI" style="rounded=0;whiteSpace=wrap;html=1;" parent="1" vertex="1">
          <mxGeometry x="285" y="610" width="120" height="60" as="geometry" />
        </mxCell>
        <mxCell id="1z3jomABF16I6msOwtXd-21" style="rounded=0;orthogonalLoop=1;jettySize=auto;html=1;exitX=0;exitY=0;exitDx=80;exitDy=65;exitPerimeter=0;endArrow=none;endFill=0;edgeStyle=orthogonalEdgeStyle;" parent="1" source="1z3jomABF16I6msOwtXd-16" target="1z3jomABF16I6msOwtXd-2" edge="1">
          <mxGeometry relative="1" as="geometry" />
        </mxCell>
        <mxCell id="1z3jomABF16I6msOwtXd-16" value="- load name&lt;br&gt;&lt;br&gt;- load input custom configurations&lt;br&gt;&lt;br&gt;- load video configurations&lt;br&gt;&lt;br&gt;- load audio configurations." style="shape=note;whiteSpace=wrap;html=1;backgroundOutline=1;darkOpacity=0.05;" parent="1" vertex="1">
          <mxGeometry x="80" y="360" width="150" height="180" as="geometry" />
        </mxCell>
        <mxCell id="Y8VPCgD-qVgG732eyoct-1" value="Login" style="shape=process;whiteSpace=wrap;html=1;backgroundOutline=1;" vertex="1" parent="1">
          <mxGeometry x="520" y="290" width="120" height="60" as="geometry" />
        </mxCell>
        <mxCell id="Y8VPCgD-qVgG732eyoct-7" style="edgeStyle=orthogonalEdgeStyle;rounded=0;orthogonalLoop=1;jettySize=auto;html=1;exitX=1;exitY=0.5;exitDx=0;exitDy=0;entryX=0;entryY=0.5;entryDx=0;entryDy=0;entryPerimeter=0;endArrow=none;endFill=0;" edge="1" parent="1" source="Y8VPCgD-qVgG732eyoct-5" target="Y8VPCgD-qVgG732eyoct-6">
          <mxGeometry relative="1" as="geometry" />
        </mxCell>
        <mxCell id="Y8VPCgD-qVgG732eyoct-5" value="Login" style="shape=process;whiteSpace=wrap;html=1;backgroundOutline=1;" vertex="1" parent="1">
          <mxGeometry x="580" y="605" width="120" height="60" as="geometry" />
        </mxCell>
        <mxCell id="Y8VPCgD-qVgG732eyoct-6" value="Use user password?&lt;br&gt;&lt;br&gt;OAuth?&lt;br&gt;&lt;br&gt;Steam?" style="shape=note;whiteSpace=wrap;html=1;backgroundOutline=1;darkOpacity=0.05;" vertex="1" parent="1">
          <mxGeometry x="760" y="565" width="80" height="150" as="geometry" />
        </mxCell>
      </root>
    </mxGraphModel>
  </diagram>
</mxfile>
